<svg id="Layer_5" enable-background="new 0 0 64 64" height="512" viewBox="0 0 64 64" width="512" xmlns="http://www.w3.org/2000/svg" xmlns:xlink="http://www.w3.org/1999/xlink"><linearGradient id="SVGID_1_" gradientUnits="userSpaceOnUse" x1="32" x2="32" y1="63" y2="1"><stop offset="0" stop-color="#9f2fff"/><stop offset="1" stop-color="#0bb1d3"/></linearGradient><path d="m46 1c-9.374 0-17 7.626-17 17 0 1.01.094 2.014.27 3h-23.27c-2.757 0-5 2.243-5 5v32c0 2.757 2.243 5 5 5h28c2.757 0 5-2.243 5-5v-24.515c2.189.989 4.577 1.515 7 1.515 9.374 0 17-7.626 17-17s-7.626-17-17-17zm0 32c-2.232 0-4.254-2.387-5.546-6h11.093c-1.293 3.613-3.315 6-5.547 6zm-6.159-8c-.462-1.821-.746-3.858-.816-6h13.951c-.07 2.142-.354 4.179-.816 6zm-8.79-8c.143-2.155.732-4.188 1.693-6h5.034c-.43 1.84-.688 3.861-.752 6zm8.79-6h12.319c.462 1.821.746 3.858.816 6h-13.952c.07-2.142.355-4.179.817-6zm6.159-8c2.232 0 4.254 2.387 5.546 6h-11.092c1.292-3.613 3.314-6 5.546-6zm8.974 16h5.975c-.143 2.155-.732 4.188-1.693 6h-5.034c.43-1.84.689-3.861.752-6zm0-2c-.063-2.139-.322-4.16-.752-6h5.034c.961 1.812 1.55 3.845 1.693 6zm2.997-8h-4.307c-.658-2.023-1.528-3.762-2.566-5.089 2.759 1.002 5.137 2.785 6.873 5.089zm-17.069-5.089c-1.038 1.327-1.908 3.066-2.566 5.089h-4.307c1.736-2.304 4.114-4.087 6.873-5.089zm-9.868 15.089h5.992c.033 1.123.121 2.212.259 3.261-.881-.775-2.022-1.261-3.285-1.261h-2.695c-.134-.658-.226-1.326-.271-2zm-25.034 4h28c1.654 0 3 1.346 3 3s-1.346 3-3 3h-28c-1.654 0-3-1.346-3-3s1.346-3 3-3zm28 38h-28c-1.654 0-3-1.346-3-3v-28.026c.838.635 1.87 1.026 3 1.026h28c1.13 0 2.162-.391 3-1.026v28.026c0 1.654-1.346 3-3 3zm5-32.204c.548 1.274 1.192 2.391 1.915 3.312-.657-.236-1.297-.52-1.915-.847zm12.098 3.293c1.038-1.327 1.908-3.066 2.566-5.089h4.307c-1.736 2.304-4.114 4.087-6.873 5.089zm-40.098-5.089h-2v-2h2zm4 0h-2v-2h2zm-8 0h-2v-2h2zm23.735 12.265c-.754-2.507-3.069-4.265-5.735-4.265-1.183 0-2.313.341-3.28.976-1.297-1.839-3.429-2.976-5.72-2.976-3.635 0-6.631 2.784-6.968 6.332-2.378.826-4.032 3.095-4.032 5.668 0 3.309 2.691 6 6 6h6v8h2v-14h-.919l1.919-2.399 1.919 2.399h-.919v10h2v-4h6c3.309 0 6-2.691 6-6 0-2.667-1.758-4.982-4.265-5.735zm-1.735 9.735h-6v-2h3.081l-6.081-7.601-6.081 7.601h3.081v2h-6c-2.206 0-4-1.794-4-4 0-1.896 1.347-3.545 3.203-3.919l.814-.164-.017-.917c0-2.757 2.243-5 5-5 1.939 0 3.72 1.142 4.536 2.908l.605 1.311 1.014-1.026c.76-.77 1.77-1.193 2.845-1.193 1.925 0 3.576 1.376 3.925 3.272l.125.679.678.124c1.896.349 3.272 1.999 3.272 3.925 0 2.206-1.794 4-4 4zm-8 8h2v2h-2z" fill="url(#SVGID_1_)"/></svg>