<svg height="496pt" viewBox="-52 0 496 496" width="496pt" xmlns="http://www.w3.org/2000/svg" xmlns:xlink="http://www.w3.org/1999/xlink"><linearGradient id="a" gradientUnits="userSpaceOnUse" x1="196" x2="196" y1="496" y2="0"><stop offset="0" stop-color="#9f2fff"/><stop offset="1" stop-color="#0bb1d3"/></linearGradient><path d="m96 176c-10.414062 0-19.214844 6.710938-22.527344 16h-17.472656c-5.894531 0-11 3.238281-13.777344 8h-18.222656c-8.824219 0-16 7.175781-16 16v64c0 8.824219 7.175781 16 16 16h18.222656c2.777344 4.761719 7.882813 8 13.777344 8h16v152c0 22.054688 17.945312 40 40 40h160c22.054688 0 40-17.945312 40-40v-152h16c5.894531 0 11-3.238281 13.777344-8h18.222656c8.824219 0 16-7.175781 16-16v-64c0-8.824219-7.175781-16-16-16h-18.222656c-2.777344-4.761719-7.882813-8-13.777344-8h-17.472656c-3.3125-9.289062-12.113282-16-22.527344-16h-32v-16h16v-80c0-44.113281-35.886719-80-80-80s-80 35.886719-80 80v80h16v16zm216 112v-16h16v16zm16-32h-16v-16h16zm32 24h-16v-64h16zm-32-56h-16v-16h16zm-272 16h16v16h-16zm16-32v16h-16v-16zm-48 8h16v64h-16zm32 72v-16h16v16zm32 168v-56h88c4.40625 0 8 3.585938 8 8v72h-72c-13.230469 0-24-10.769531-24-24zm208-256v256c0 13.230469-10.769531 24-24 24h-72v-72c0-13.230469-10.769531-24-24-24h-88v-184c0-4.40625 3.59375-8 8-8h8v64h32v-16h-16v-48h144v48h-112v16h128v-64h8c4.40625 0 8 3.59375 8 8zm-168-120c0-35.289062 28.710938-64 64-64s64 28.710938 64 64v64h-128zm16 80h96v16h-96zm-16 128c-13.230469 0-24 10.769531-24 24s10.769531 24 24 24 24-10.769531 24-24-10.769531-24-24-24zm0 32c-4.40625 0-8-3.585938-8-8s3.59375-8 8-8 8 3.585938 8 8-3.59375 8-8 8zm40-16h16v16h-16zm72-32c-22.054688 0-40 17.945312-40 40s17.945312 40 40 40 40-17.945312 40-40-17.945312-40-40-40zm0 64c-13.230469 0-24-10.769531-24-24s10.769531-24 24-24c10.414062 0 19.214844 6.710938 22.527344 16h-22.527344v16h22.527344c-3.3125 9.289062-12.113282 16-22.527344 16zm-136 80h64v16h-64zm0 32h64v16h-64zm160 0h16v16h-16zm-264-400h20.6875l-14.632812 14.632812 11.3125 11.3125 14.632812-14.632812v20.6875h16v-20.6875l14.632812 14.632812 11.3125-11.3125-14.632812-14.632812h20.6875v-16h-20.6875l14.632812-14.632812-11.3125-11.3125-14.632812 14.632812v-20.6875h-16v20.6875l-14.632812-14.632812-11.3125 11.3125 14.632812 14.632812h-20.6875zm24-1.375v-13.25l9.375-9.375h13.25l9.375 9.375v13.25l-9.375 9.375h-13.25zm288 81.375h20.6875l-14.632812 14.632812 11.3125 11.3125 14.632812-14.632812v20.6875h16v-20.6875l14.632812 14.632812 11.3125-11.3125-14.632812-14.632812h20.6875v-16h-20.6875l14.632812-14.632812-11.3125-11.3125-14.632812 14.632812v-20.6875h-16v20.6875l-14.632812-14.632812-11.3125 11.3125 14.632812 14.632812h-20.6875zm24-1.375v-13.25l9.375-9.375h13.25l9.375 9.375v13.25l-9.375 9.375h-13.25zm-232 225.375h16v16h-16zm32 0h16v16h-16zm32 0h16v16h-16zm24-320c-26.472656 0-48 21.527344-48 48s21.527344 48 48 48 48-21.527344 48-48-21.527344-48-48-48zm0 80c-17.648438 0-32-14.351562-32-32s14.351562-32 32-32 32 14.351562 32 32-14.351562 32-32 32zm0 0" fill="url(#a)"/></svg>